Coordinates
version=1
nRows=18
nColumns=22
inDegrees=yes

Units are S.I. units (second, meters, Newtons, ...)
If the header above contains a line with 'inDegrees', this indicates whether rotational values are in degrees (yes) or radians (no).

endheader
time	pelvis_tilt	pelvis_list	pelvis_rotation	pelvis_tx	pelvis_ty	pelvis_tz	hip_flexion_r	hip_adduction_r	hip_rotation_r	knee_angle_r	ankle_angle_r	subtalar_angle_r	hip_flexion_l	hip_adduction_l	hip_rotation_l	knee_angle_l	ankle_angle_l	subtalar_angle_l	lumbar_extension	lumbar_bending	lumbar_rotation
      0.01000000	     -1.03613766	     -4.16429218	     -4.21197954	      0.96368164	      0.94324007	     -0.26352658	      8.83596706	      3.44162849	     -0.93206989	    -21.06678920	     12.31605890	     -1.88485006	      7.89152518	     -7.86296062	     -8.78961760	    -24.29740295	     14.19396208	     -4.04732955	     -2.05002370	      4.10478708	     -9.05473511
      0.02000000	     -1.03649529	     -4.16519820	     -4.21206021	      0.96369383	      0.94323819	     -0.26353436	      8.83588803	      3.44172084	     -0.93216515	    -21.06688914	     12.31600040	     -1.88499684	      7.89153514	     -7.86281515	     -8.78951727	    -24.29754371	     14.19397059	     -4.04718114	     -2.05037272	      4.10431381	     -9.05477836
      0.03000000	     -1.03618810	     -4.16754335	     -4.21367049	      0.96369785	      0.94323818	     -0.26351817	      8.83659667	      3.44514095	     -0.93390842	    -21.06836084	     12.31514150	     -1.88674062	      7.89170513	     -7.86596735	     -8.78677940	    -24.29958113	     14.19425646	     -4.04538687	     -2.05424549	      4.09953579	     -9.05536017
      0.04000000	     -1.02802004	     -4.17486686	     -4.21001061	      0.96368498	      0.94324239	     -0.26352939	      8.83710535	      3.45131275	     -0.93936503	    -21.08477034	     12.30904012	     -1.89805865	      7.89191180	     -7.87234131	     -8.77516963	    -24.31440469	     14.19731700	     -4.03345427	     -2.07159896	      4.10480225	     -9.05345068
      0.05000000	     -1.02889554	     -4.17643561	     -4.21144845	      0.96369583	      0.94324251	     -0.26352584	      8.83732933	      3.45292571	     -0.94079538	    -21.08394378	     12.30876117	     -1.89912807	      7.89185482	     -7.87387093	     -8.77456801	    -24.31418919	     14.19809800	     -4.03234422	     -2.07331786	      4.10152012	     -9.05410088
      0.06000000	     -1.02963952	     -4.17751223	     -4.21152278	      0.96371169	      0.94324346	     -0.26353700	      8.83729364	      3.45288717	     -0.94090255	    -21.08407636	     12.30870296	     -1.89926338	      7.89164535	     -7.87381467	     -8.77454193	    -24.31433246	     14.19819143	     -4.03219475	     -2.07385367	      4.10084932	     -9.05411765
      0.07000000	     -1.03012321	     -4.17919556	     -4.21220008	      0.96371400	      0.94324332	     -0.26352801	      8.83851674	      3.45524048	     -0.94247170	    -21.08489924	     12.30817376	     -1.90021920	      7.89165986	     -7.87628503	     -8.77379084	    -24.31403111	     14.19908630	     -4.03108067	     -2.07758538	      4.09590899	     -9.05360802
      0.08000000	     -1.03081496	     -4.18014313	     -4.21212018	      0.96372644	      0.94324435	     -0.26353991	      8.83849987	      3.45513117	     -0.94255172	    -21.08516612	     12.30810680	     -1.90031922	      7.89142612	     -7.87619054	     -8.77381298	    -24.31416201	     14.19916527	     -4.03095855	     -2.07811114	      4.09537117	     -9.05345244
      0.09000000	     -1.03096427	     -4.18154469	     -4.21037979	      0.96372038	      0.94324488	     -0.26353338	      8.84039420	      3.45716673	     -0.94446407	    -21.08727982	     12.30729408	     -1.90137202	      7.89172054	     -7.87877842	     -8.77369792	    -24.31285392	     14.20029174	     -4.02961864	     -2.08312441	      4.08994851	     -9.05035264
      0.10000000	     -1.03149875	     -4.18224860	     -4.21026408	      0.96372905	      0.94324492	     -0.26354437	      8.84034468	      3.45701665	     -0.94453616	    -21.08750971	     12.30724169	     -1.90143750	      7.89150388	     -7.87861361	     -8.77375565	    -24.31295657	     14.20033965	     -4.02953206	     -2.08343453	      4.08959820	     -9.05011596
      0.11000000	     -1.03129200	     -4.18296811	     -4.20532985	      0.96371984	      0.94324708	     -0.26354363	      8.84199166	      3.45801540	     -0.94742258	    -21.09052065	     12.30608371	     -1.90276075	      7.89204902	     -7.88036787	     -8.77463006	    -24.31048613	     14.20164667	     -4.02772371	     -2.08819752	      4.08377788	     -9.04276775
      0.12000000	     -1.03165680	     -4.18346052	     -4.20524136	      0.96372369	      0.94324705	     -0.26355280	      8.84207254	      3.45774414	     -0.94754053	    -21.09059805	     12.30603655	     -1.90282764	      7.89171759	     -7.88029753	     -8.77466483	    -24.31063475	     14.20167987	     -4.02763061	     -2.08835167	      4.08348123	     -9.04244030
      0.13000000	     -1.03174848	     -4.18336413	     -4.19978821	      0.96371469	      0.94324960	     -0.26355285	      8.84313622	      3.45734434	     -0.95079362	    -21.09133950	     12.30504191	     -1.90398267	      7.89240618	     -7.88145887	     -8.77571274	    -24.30810545	     14.20247202	     -4.02591808	     -2.09127316	      4.07745732	     -9.03414675
      0.14000000	     -1.03189601	     -4.18372430	     -4.19970912	      0.96371317	      0.94325031	     -0.26356075	      8.84300525	      3.45731735	     -0.95103970	    -21.09139845	     12.30498123	     -1.90406119	      7.89238473	     -7.88110974	     -8.77579663	    -24.30810241	     14.20248839	     -4.02579300	     -2.09129165	      4.07709786	     -9.03367359
      0.15000000	     -1.03227797	     -4.18268949	     -4.19259618	      0.96370056	      0.94325086	     -0.26356044	      8.84289531	      3.45665375	     -0.95519266	    -21.08978667	     12.30378964	     -1.90534574	      7.89431407	     -7.88144425	     -8.77712777	    -24.30512693	     14.20273112	     -4.02370067	     -2.09311176	      4.06955084	     -9.02400482
      0.16000000	     -1.03216287	     -4.18311062	     -4.19246241	      0.96369317	      0.94325193	     -0.26356752	      8.84312015	      3.45621392	     -0.95537619	    -21.08950560	     12.30373507	     -1.90542523	      7.89408467	     -7.88141305	     -8.77714587	    -24.30522918	     14.20270691	     -4.02357571	     -2.09296705	      4.06917559	     -9.02360739
      0.17000000	     -1.03294671	     -4.18185927	     -4.18537518	      0.96367648	      0.94325343	     -0.26356522	      8.84264292	      3.45529739	     -0.95940551	    -21.08568993	     12.30242148	     -1.90668304	      7.89660054	     -7.88195708	     -8.77834828	    -24.30251096	     14.20233862	     -4.02146130	     -2.09403373	      4.06089118	     -9.01550537
      0.18000000	     -1.03253819	     -4.18226925	     -4.18526449	      0.96366345	      0.94325606	     -0.26357251	      8.84279145	      3.45501125	     -0.95958720	    -21.08539142	     12.30235896	     -1.90675934	      7.89659324	     -7.88178625	     -8.77839386	    -24.30252646	     14.20229386	     -4.02134051	     -2.09372675	      4.06053446	     -9.01518756
